<svg id="图层_1" data-name="图层 1" xmlns="http://www.w3.org/2000/svg" viewBox="0 0 749 230.5"><defs><style>.cls-1{fill:none;stroke:#ea5334;stroke-miterlimit:10;stroke-width:5px;}</style></defs><title>画板 2 副本</title><path class="cls-1" d="M147.55,64.07,135.87,167.88a8.93,8.93,0,0,1-8.87,7.94H97.87a6.69,6.69,0,0,1-6.65-7.37l.36-3.51a3.51,3.51,0,0,0-3.5-3.87H69a3.51,3.51,0,0,0-3,1.72l-5.79,9.75a6.69,6.69,0,0,1-5.75,3.28h-25a8.94,8.94,0,0,1-7.69-13.5L83.25,58.52a8.93,8.93,0,0,1,7.69-4.38h47.73A8.93,8.93,0,0,1,147.55,64.07ZM95,114.46l-13.17,22a2.16,2.16,0,0,0,1.86,3.28H92a2.6,2.6,0,0,0,2.6-2.33l2.39-22.31A1.07,1.07,0,0,0,95,114.46Z"/><path class="cls-1" d="M198.38,54h95.33a2.16,2.16,0,0,1,1.71.84l9.15,11.75a2.19,2.19,0,0,1,.34,2l-12,34.14a2.25,2.25,0,0,1-.81,1.06l-6.94,4.81a2.16,2.16,0,0,0,1.23,3.94h0a2.16,2.16,0,0,1,2,2.88L272.2,161.36a2.17,2.17,0,0,1-.8,1.06L252.27,175.7a2.16,2.16,0,0,1-1.23.39H156.85a2.17,2.17,0,0,1-2-2.88L196.34,55.45A2.17,2.17,0,0,1,198.38,54Zm38.73,78.31,1-2.77a2.17,2.17,0,0,0-2-2.89H218.24a2.15,2.15,0,0,0-2,1.45l-1,2.77a2.16,2.16,0,0,0,2,2.88h17.81A2.15,2.15,0,0,0,237.11,132.31Zm9-34.06H228.26a2.16,2.16,0,0,0-2,1.44l-.93,2.64a2.16,2.16,0,0,0,2,2.88h17.81a2.18,2.18,0,0,0,2-1.44l.93-2.64A2.16,2.16,0,0,0,246.07,98.25Z"/><path class="cls-1" d="M444.06,55.69l5.67,8.3a3.89,3.89,0,0,1,.45,3.47l-33.67,95.47a3.87,3.87,0,0,1-1.39,1.85L401,175a3.83,3.83,0,0,1-2.26.73H310.13a3.85,3.85,0,0,1-3.19-1.69l-5.67-8.3a3.86,3.86,0,0,1-.46-3.47l33.67-95.47a3.87,3.87,0,0,1,1.39-1.85L350,54.73a3.91,3.91,0,0,1,2.27-.73h88.61A3.87,3.87,0,0,1,444.06,55.69ZM382.42,98.11h-3.54a3.87,3.87,0,0,0-3.65,2.58l-9.07,25.73a3.86,3.86,0,0,0,3.64,5.15h3.55A3.85,3.85,0,0,0,377,129l9.08-25.72A3.87,3.87,0,0,0,382.42,98.11Z"/><path class="cls-1" d="M596.66,59.76l-33.09,93.82a4.28,4.28,0,0,1-1.44,2l-25,19.21a4.25,4.25,0,0,1-2.63.9H447a4.32,4.32,0,0,1-4.08-5.76l39.86-113A4.32,4.32,0,0,1,486.9,54h42.86a4.33,4.33,0,0,1,4.08,5.76l-23.92,67.82a4.33,4.33,0,0,0,4.08,5.77h3.94a4.33,4.33,0,0,0,4.08-2.89L548,56.89A4.33,4.33,0,0,1,552,54h40.54A4.33,4.33,0,0,1,596.66,59.76Z"/><path class="cls-1" d="M613.46,77.08l7.1-20.14a4.21,4.21,0,0,1,4-2.8H725.82a4.21,4.21,0,0,1,4,5.6l-7.1,20.14a4.22,4.22,0,0,1-4,2.8H701.18a4.19,4.19,0,0,0-4,2.81L666.35,173a4.2,4.2,0,0,1-4,2.81H608.07a4.2,4.2,0,0,1-4-5.6L633,88.28a4.2,4.2,0,0,0-4-5.6H617.43A4.21,4.21,0,0,1,613.46,77.08Z"/></svg>