<svg id="图层_1" data-name="图层 1" xmlns="http://www.w3.org/2000/svg" viewBox="0 0 601.44 230.5"><defs><style>.cls-1{font-size:41.21px;fill:#fff;font-family:HGPTY_CNKI;}.cls-2{fill:#140e0b;}</style></defs><title>画板 2</title><text class="cls-1" transform="translate(85.39 191.6)"><tspan xml:space="preserve">-official  website-</tspan></text><path class="cls-2" d="M125.72,59.11a6.26,6.26,0,0,0-5.78-4.28C65,53.47,63.05,64,63.05,64c-2.19,9.32-.17,14.43,2.09,17.15A6.21,6.21,0,0,0,71.72,83c1.7-.53,3.53-1,5.43-1.38-1.46,5.74-4,19.88-4.09,53.64A3.23,3.23,0,0,0,74.53,138c2.72,1.75,8.84,4.57,15.19,0a3.21,3.21,0,0,0,1.3-2.67c-.06-3.19-.17-10.88-.1-20a1.91,1.91,0,0,0,.41,0c6.74-1.22,22.3-1.39,26.6-1.42a2,2,0,0,0,1.73-1.06,11.1,11.1,0,0,0-1-12.17,1.94,1.94,0,0,0-1.59-.76c-7.48.15-20.84,2-26,2.69.23-7.77.65-15.56,1.38-21.83a3.35,3.35,0,0,0-.08-1.1,245.23,245.23,0,0,1,28,0,6.21,6.21,0,0,0,6.18-4C128.68,70.07,127.15,63.34,125.72,59.11Z"/><path class="cls-2" d="M216.55,70c0-10-52.93-8.43-62.52-8.06a2.74,2.74,0,0,0-2.28,1.42c-6.78,12-2.42,21-.23,24.25a2.7,2.7,0,0,0,2.57,1.2c.92-.09,1.94-.17,3-.24-1.17,10-4.21,38.25-2.58,46.43,0,0,1,6,11,5,0,0,37.23,0,44.2-4.33a2.65,2.65,0,0,0,1.08-1.38c.64-1.8,1.89-6.67-1.72-10a2.65,2.65,0,0,0-2.23-.61c-4.75.84-22.74,3.85-31.36,3.16a2.68,2.68,0,0,1-2.47-2.68v-6a2.68,2.68,0,0,1,2.64-2.68c5.8-.09,19.54-.5,24.28-2.4a2.61,2.61,0,0,0,1.49-1.56c.56-1.59,1.33-4.85-.33-7.64a2.66,2.66,0,0,0-2.48-1.27c-4.31.31-17.48,1.21-23.06,1.18a2.67,2.67,0,0,1-2.65-2.56,100.21,100.21,0,0,1,.15-12.87c15.82.22,34.2,1.32,38.52,1.59a2.63,2.63,0,0,0,1.87-.59C219.28,84.47,216.55,70,216.55,70Z"/><path class="cls-2" d="M268.46,65.81c-6.23-1.19-17.09-1.93-21.76,5.9a6.35,6.35,0,0,0-.79,2.35c-1.8,14.41-3.33,29-3.41,43.51,0,3.79-.38,7.61.21,11.38.5,3.23,1.63,5.64,4.95,6.74,4.86,1.61,14,1.73,14.64-5.09.22-2.36-.62-4.68-.95-7-.39-2.78-.83-5.54-1.19-8.32-.59-4.56-1.21-9.12-1.46-13.72-.2-3.64-1-8,.12-11.71.3-1,1.79-1.42,2.28-.52,1.95,3.6,3.31,7.3,4.95,10.6A304.57,304.57,0,0,0,281.89,128c2.25,3.54,5.1,6.45,9.32,7.39,5.2,1.15,10.85.27,16-.83,4.89-1.05,10.72-3.47,11.36-9.14,0,0,4.56-40.15-2.87-57.69a5.08,5.08,0,0,0-3.7-3c-2.85-.56-7.27-.65-9,3.49a4.8,4.8,0,0,0-.31,2.28c.51,5.75,2.87,33.35,1.7,42.3a1.22,1.22,0,0,1-2.23.52c-5.06-7.55-22.1-33.11-27.48-43A9,9,0,0,0,268.46,65.81Z"/><path class="cls-2" d="M386.05,65.15a12.46,12.46,0,0,0-7.59-.4c-8.54,2.25-29.65,10-34.41,32.2,0,0-10,31,23,40,0,0,25.27,3.61,37.73-9.29a11.14,11.14,0,0,0,2.7-10.54,32.7,32.7,0,0,0-4.77-11,8.35,8.35,0,0,0-8.39-3.19c-3.11.64-7.06,2.11-8.77,5.52-1.5,3-.25,4.25,1.38,4.75a6.72,6.72,0,0,0,4.75-.53c.9-.42,2.09-.44,2.61,1.85a5.88,5.88,0,0,1-2.14,6c-2.34,1.6-5.36,1.69-8.08,1.56a22.08,22.08,0,0,1-9.37-2.55c-4.78-2.61-5.15-7.72-3.39-12.44a18.25,18.25,0,0,1,5-7.18c4.21-3.74,12.33-10.58,18.34-13.33a7.32,7.32,0,0,0,3.89-9C397.12,73.22,393.76,68.05,386.05,65.15Z"/><path class="cls-2" d="M546.87,132.15c-1.55-1.17-3.16-.42-4.88-.57-6-.51-7.78-6.92-8.29-11.93-.88-8.69,1.14-17.54,1.33-26.23.16-7.71.21-15.67-2.48-23A29.69,29.69,0,0,0,525.4,60c-6.78-6.69-16.33-9.12-25.56-9.89-10.48-.87-21.63-1.13-32,.61-11.49,1.94-21.62,7-26.78,19a32,32,0,0,0-2.21,7.79c-2.74,18.28-5.82,37.7-3.87,56.19a32.49,32.49,0,0,0,1.4,8c2,5.26,7.7,6.26,12.71,6.32,5.49.08,15,.48,17-6.13,1.27-4.12-.13-8.76-.39-12.94q-.41-6.68-.61-13.37c-.27-8.91-.2-17.84.41-26.74.37-5.3.54-11,2.31-16.11,3.31-9.44,13.66-11.42,22.63-11.88,8.18-.41,17,1.27,23.35,6.74a23.52,23.52,0,0,1,7,10.5c2.35,7,1.89,14.8.6,22-1.58,8.8-3.9,17.64-2.82,26.64a25.18,25.18,0,0,0,3.75,11.31c4.49,6.52,20.5,11.88,25.26,3C548.85,138.66,549.35,134,546.87,132.15Z"/><path class="cls-2" d="M512.55,87.45A13.49,13.49,0,0,0,505,81c-5.32-1.78-11.23-.71-16.69-.39-3.43.21-7,.27-10.26,1.28a16.57,16.57,0,0,0-1.93.72c-3.06,1.41-3.5,4.66-3.28,7.71.17,2.44.84,5.57,2.89,7.16a3.4,3.4,0,0,0,3.34.47s17.5-6.5,22.5-1.5c0,0,2.77,7.37-6.75,12.39a2.41,2.41,0,0,1-2.37-.07l-8.88-5.32s-7-2.64-7.91,6.12a3.78,3.78,0,0,0,1.06,3l4.28,4.28a.58.58,0,0,1-.15.93L477,119.74c-1.69.85-4.44,1.64-5.38,3.4-1.34,2.56.48,6.35,3.55,6.23a15.13,15.13,0,0,0,4.43-1.4c1.43-.55,2.86-1.11,4.29-1.69a37.7,37.7,0,0,0,7.17-3.41,1,1,0,0,1,1.17,0c2.62,1.78,12.5,8.43,13.36,7.56,0,0,5.08,0,6.67-7a2.88,2.88,0,0,0-1.14-3L503.3,115a.78.78,0,0,1-.13-1.17C506.05,110.71,517.84,97.14,512.55,87.45Z"/><circle class="cls-2" cx="450.13" cy="49" r="15.77"/><circle class="cls-2" cx="425.26" cy="91.06" r="6.53"/><circle class="cls-2" cx="433.99" cy="84.53" r="6.53"/><circle class="cls-2" cx="440.1" cy="74.85" r="6.53"/><circle class="cls-2" cx="443.6" cy="64.78" r="6.53"/><path class="cls-2" d="M420.35,91.06c-.29,0-4.55.14-5.35-3.63a.35.35,0,0,0-.58-.16A17.1,17.1,0,0,0,413,89a9.64,9.64,0,0,0-1.93,5.26,6,6,0,0,0,8.44,5.48,9.91,9.91,0,0,0,4.65-5.2.07.07,0,0,0,0-.07l-3.77-3.44Z"/><circle class="cls-2" cx="522.71" cy="49" r="15.77"/><circle class="cls-2" cx="547.58" cy="91.06" r="6.53"/><circle class="cls-2" cx="538.85" cy="84.53" r="6.53"/><circle class="cls-2" cx="532.74" cy="74.85" r="6.53"/><circle class="cls-2" cx="529.25" cy="64.78" r="6.53"/><path class="cls-2" d="M552.49,91.06c.3,0,4.55.14,5.36-3.63a.34.34,0,0,1,.57-.16A17.1,17.1,0,0,1,559.83,89a9.73,9.73,0,0,1,1.94,5.26,6,6,0,0,1-8.45,5.48,9.9,9.9,0,0,1-4.64-5.2.06.06,0,0,1,0-.07l3.77-3.44Z"/></svg>