<svg id="图层_1" data-name="图层 1" xmlns="http://www.w3.org/2000/svg" viewBox="0 0 808.03 230.5"><defs><style>.cls-1{fill:#fff;}</style></defs><title>画板 2 副本 2</title><path class="cls-1" d="M78,63.7,61.72,108.34a2.33,2.33,0,0,1-2.18,1.53H37.88a2.32,2.32,0,0,1-2.18-3.11L56.9,48.52a2.35,2.35,0,0,1,.82-1.09l11.22-8.07a2.33,2.33,0,0,1,1.35-.43h58.44a2.31,2.31,0,0,1,1.93,1l4.58,6.91a2.3,2.3,0,0,1,.25,2.07l-21.62,59.4a2.33,2.33,0,0,1-2.18,1.53H89a2.32,2.32,0,0,1-2.18-3.11l15.09-41.47a2.32,2.32,0,0,0-2.18-3.11h-.24a2.33,2.33,0,0,0-2.18,1.52L81.06,108.34a2.31,2.31,0,0,1-2.18,1.53H69.41a2.32,2.32,0,0,1-2.18-3.11L82.32,65.29a2.32,2.32,0,0,0-2.18-3.11h0A2.33,2.33,0,0,0,78,63.7Z"/><path class="cls-1" d="M203.78,40.12l-8.54,69a1,1,0,0,1-1,.87h-24a1,1,0,0,1-1-1.1l.73-6.4a1,1,0,0,0-1-1.1H156.14a1,1,0,0,0-.84.48l-4.63,7.64a1,1,0,0,1-.84.48H126.18a1,1,0,0,1-.84-1.5l41.66-69a1,1,0,0,1,.85-.47h35A1,1,0,0,1,203.78,40.12ZM171.33,75.61l-7.2,11.81a1,1,0,0,0,.85,1.51h5.79a1,1,0,0,0,1-.87l1.4-11.82A1,1,0,0,0,171.33,75.61Z"/><path class="cls-1" d="M295.18,47.47,285.3,74.63a2.21,2.21,0,0,1-1,1.16l-11.54,6.37h-.32l7.64,11.1a2.18,2.18,0,0,1,.26,2l-4.81,13.2a2.17,2.17,0,0,1-2,1.43H254.57a2.14,2.14,0,0,1-1.77-.92l-7.19-10.24a2.16,2.16,0,0,0-3.81.5l-1.92,5.28a2.16,2.16,0,0,0,.28,2h0a2.17,2.17,0,0,1-1.75,3.45h-29a2.17,2.17,0,0,1-2-2.91l24.24-66.61a2.17,2.17,0,0,1,2-1.42h53.95a2.16,2.16,0,0,1,1.54.63l5.57,5.55A2.19,2.19,0,0,1,295.18,47.47ZM255.85,69.1h2a2.16,2.16,0,0,0,2-1.42L264,56.41a2.16,2.16,0,0,0-2-2.91h-2a2.16,2.16,0,0,0-2,1.43l-4.1,11.26A2.16,2.16,0,0,0,255.85,69.1Z"/><path class="cls-1" d="M376.62,40.75l-2.44,6.68a1.31,1.31,0,0,1-.28.45l-25.27,26.2a1.31,1.31,0,0,0-.33,1.21l6.22,25.52a1.28,1.28,0,0,1,0,.75L351.77,109a1.31,1.31,0,0,1-1.22.85H327.08a1.29,1.29,0,0,1-1.26-1L322.9,96.63a1.3,1.3,0,0,0-2.48-.14l-4.62,12.69a1.3,1.3,0,0,1-1.22.85H288a1.3,1.3,0,0,1-1.22-1.74l24.94-68.51a1.29,1.29,0,0,1,1.22-.85h26.62a1.3,1.3,0,0,1,1.22,1.74L337,50.84a1.3,1.3,0,0,0,2.16,1.34L351.47,39.4a1.29,1.29,0,0,1,.93-.39h23A1.3,1.3,0,0,1,376.62,40.75Z"/><path class="cls-1" d="M431.43,81.05H413a2.31,2.31,0,0,0-2.17,1.52L407,93.07a2.31,2.31,0,0,0,2.18,3.1h17.59a2.32,2.32,0,0,1,1.88,3.67L422.11,109a2.33,2.33,0,0,1-1.89,1H365.88a2.32,2.32,0,0,1-2.18-3.11l24.14-66.31A2.31,2.31,0,0,1,390,39h57.49a2.31,2.31,0,0,1,2.18,3.1l-3.33,9.15a2.32,2.32,0,0,1-2.18,1.52H423.3a2.33,2.33,0,0,0-2.18,1.52l-3.47,9.55a2.31,2.31,0,0,0,2.18,3.1h15a2.32,2.32,0,0,1,2.18,3.11l-3.45,9.46A2.31,2.31,0,0,1,431.43,81.05Z"/><path class="cls-1" d="M457.8,53.94l5.13-14.1a1.28,1.28,0,0,1,1.2-.83h61.55a1.27,1.27,0,0,1,1.19,1.7l-5.13,14.1a1.28,1.28,0,0,1-1.2.84H508.63a1.28,1.28,0,0,0-1.2.83l-19.15,52.63a1.26,1.26,0,0,1-1.2.84H452.92a1.27,1.27,0,0,1-1.19-1.7l18.52-50.9a1.26,1.26,0,0,0-1.19-1.7H459A1.27,1.27,0,0,1,457.8,53.94Z"/><path class="cls-1" d="M513.6,108l3.31-9.08a1.38,1.38,0,0,1,1.31-.91h1.95a1.4,1.4,0,0,0,1.31-.92l16-43.87a1.4,1.4,0,0,0-1.31-1.87h0a1.39,1.39,0,0,1-1.31-1.87l3.47-9.56a1.39,1.39,0,0,1,1.31-.91h39.47a1.39,1.39,0,0,1,1.31,1.87l-3.47,9.55a1.4,1.4,0,0,1-1.31.92H573.5a1.38,1.38,0,0,0-1.31.91l-16,43.88A1.39,1.39,0,0,0,557.53,98h.16A1.39,1.39,0,0,1,559,99.88L555.7,109a1.4,1.4,0,0,1-1.31.92H514.91A1.4,1.4,0,0,1,513.6,108Z"/><path class="cls-1" d="M630.9,47.15l2.35-6.46a2.67,2.67,0,0,1,2.52-1.76H655a2.68,2.68,0,0,1,2.52,3.6L633.64,108.1a2.7,2.7,0,0,1-2.53,1.77h-31.8a2.68,2.68,0,0,1-2.62-2.09l-2.74-12a2.69,2.69,0,0,0-5.15-.32l-4.61,12.67a2.68,2.68,0,0,1-2.52,1.77H570.35a2.68,2.68,0,0,1-2.53-3.6l23.87-65.58a2.67,2.67,0,0,1,2.52-1.76H621.5a2.68,2.68,0,0,1,2.59,2l1.7,6.07A2.68,2.68,0,0,0,630.9,47.15Z"/><path class="cls-1" d="M735.65,40.88l-4.14,11.38a1.39,1.39,0,0,1-1.31.92H697a1.39,1.39,0,0,0-1.31.92L681.36,93.35a1.39,1.39,0,0,0,1.31,1.87H689a1.39,1.39,0,0,0,1.31-.92L694.1,84a1.39,1.39,0,0,0-1.31-1.87h0a1.39,1.39,0,0,1-1.31-1.87L695,70.5a1.4,1.4,0,0,1,1.31-.92h26a1.39,1.39,0,0,1,1.31,1.87l-11.6,31.86a1.35,1.35,0,0,1-.41.59l-6.76,5.65a1.39,1.39,0,0,1-.89.32H646.13a1.39,1.39,0,0,1-1.31-1.87l21.3-58.52a1.38,1.38,0,0,1,.56-.7l14.93-9.55a1.32,1.32,0,0,1,.75-.22h52A1.39,1.39,0,0,1,735.65,40.88Z"/><path class="cls-1" d="M308.05,142.93l-11.52,31.66a2.27,2.27,0,0,1-.94,1.13l-10,6.05a2.16,2.16,0,0,1-1.14.32H261a2.22,2.22,0,0,0-2.08,1.45l-6.06,16.66A2.17,2.17,0,0,0,253,202l.15.28a2.21,2.21,0,0,1-2,3.23H221.47a2.21,2.21,0,0,1-2.08-3L243.61,136a2.19,2.19,0,0,1,2.07-1.45h55.64a2.2,2.2,0,0,1,1.68.77l4.65,5.42A2.21,2.21,0,0,1,308.05,142.93ZM267.38,169h0a2.22,2.22,0,0,0,2.08-1.45L275.13,152a2.21,2.21,0,0,0-2.08-3h0a2.2,2.2,0,0,0-2.07,1.45l-5.67,15.58A2.21,2.21,0,0,0,267.38,169Z"/><path class="cls-1" d="M385.33,143l-9.89,27.15a2.14,2.14,0,0,1-1,1.16l-11.54,6.38h-.32l7.65,11.1a2.16,2.16,0,0,1,.25,2L365.68,204a2.16,2.16,0,0,1-2,1.42H344.71a2.15,2.15,0,0,1-1.77-.92l-7.18-10.24a2.18,2.18,0,0,0-3.82.51L330,200a2.17,2.17,0,0,0,.28,2h0a2.16,2.16,0,0,1-1.75,3.44h-29a2.17,2.17,0,0,1-2-2.91L321.72,136a2.18,2.18,0,0,1,2-1.43h54a2.2,2.2,0,0,1,1.53.63l5.57,5.56A2.19,2.19,0,0,1,385.33,143ZM346,164.65h2a2.18,2.18,0,0,0,2-1.43l4.1-11.27a2.18,2.18,0,0,0-2-2.91h-2a2.17,2.17,0,0,0-2,1.43L344,161.74A2.17,2.17,0,0,0,346,164.65Z"/><path class="cls-1" d="M463.68,135.9l2.67,4a3.22,3.22,0,0,1,.36,2.9l-20,54.93a3.21,3.21,0,0,1-1.15,1.52l-7.82,5.58a3.23,3.23,0,0,1-1.87.6H385a3.22,3.22,0,0,1-2.67-1.42l-2.68-4a3.22,3.22,0,0,1-.35-2.89l20-54.93a3.21,3.21,0,0,1,1.15-1.52l7.82-5.59a3.2,3.2,0,0,1,1.87-.6H461A3.23,3.23,0,0,1,463.68,135.9Zm-37.92,24.29h0a3.22,3.22,0,0,0-3,2.12L418,175.38a3.22,3.22,0,0,0,3,4.32h0a3.22,3.22,0,0,0,3-2.12l4.76-13.07A3.22,3.22,0,0,0,425.76,160.19Z"/><path class="cls-1" d="M546.57,136.42l-4.15,11.39a1.38,1.38,0,0,1-1.3.91H507.87a1.39,1.39,0,0,0-1.3.92l-14.29,39.25a1.39,1.39,0,0,0,1.31,1.87h6.35a1.39,1.39,0,0,0,1.31-.91L505,179.5a1.39,1.39,0,0,0-1.31-1.87h0a1.4,1.4,0,0,1-1.31-1.87l3.54-9.72a1.38,1.38,0,0,1,1.31-.91h26a1.39,1.39,0,0,1,1.31,1.87L523,198.85a1.31,1.31,0,0,1-.42.59l-6.76,5.65a1.37,1.37,0,0,1-.89.32H457a1.4,1.4,0,0,1-1.31-1.87L477,145a1.39,1.39,0,0,1,.56-.7l14.94-9.56a1.4,1.4,0,0,1,.75-.22h52A1.39,1.39,0,0,1,546.57,136.42Z"/><path class="cls-1" d="M621.48,143l-9.89,27.15a2.1,2.1,0,0,1-1,1.16l-11.54,6.38h-.32l7.65,11.1a2.16,2.16,0,0,1,.25,2L601.84,204a2.18,2.18,0,0,1-2,1.42H580.87a2.17,2.17,0,0,1-1.78-.92l-7.18-10.24a2.18,2.18,0,0,0-3.82.51L566.17,200a2.18,2.18,0,0,0,.29,2h0a2.17,2.17,0,0,1-1.76,3.44h-29a2.16,2.16,0,0,1-2-2.91L557.88,136a2.16,2.16,0,0,1,2-1.43h54a2.16,2.16,0,0,1,1.53.63l5.57,5.56A2.17,2.17,0,0,1,621.48,143Zm-39.33,21.63h2a2.17,2.17,0,0,0,2-1.43l4.1-11.27a2.17,2.17,0,0,0-2-2.91h-2a2.17,2.17,0,0,0-2,1.43l-4.1,11.27A2.17,2.17,0,0,0,582.15,164.65Z"/><path class="cls-1" d="M691.82,135.32l-8.61,69.57a.67.67,0,0,1-.68.6H658a.68.68,0,0,1-.68-.76l.8-7.07a.68.68,0,0,0-.68-.76H644a.68.68,0,0,0-.59.33l-4.8,7.93a.68.68,0,0,1-.59.33H613.65a.68.68,0,0,1-.59-1l42-69.58a.71.71,0,0,1,.59-.33h35.46A.68.68,0,0,1,691.82,135.32ZM660.06,170l-8.21,13.47a.68.68,0,0,0,.59,1h6.61a.69.69,0,0,0,.68-.6l1.6-13.47A.69.69,0,0,0,660.06,170Z"/><path class="cls-1" d="M737.71,159.25l-16.25,44.64a2.31,2.31,0,0,1-2.18,1.52H697.63a2.32,2.32,0,0,1-2.18-3.11l21.19-58.24a2.3,2.3,0,0,1,.83-1.09l11.21-8.06a2.3,2.3,0,0,1,1.36-.44h58.44a2.31,2.31,0,0,1,1.93,1l4.58,6.9a2.36,2.36,0,0,1,.24,2.08l-21.62,59.4a2.31,2.31,0,0,1-2.18,1.52H748.74a2.32,2.32,0,0,1-2.18-3.11l15.1-41.47a2.32,2.32,0,0,0-2.18-3.11h-.24a2.31,2.31,0,0,0-2.18,1.53l-16.25,44.64a2.31,2.31,0,0,1-2.18,1.52h-9.47A2.32,2.32,0,0,1,727,202.3l15.09-41.47a2.32,2.32,0,0,0-2.18-3.11h0A2.31,2.31,0,0,0,737.71,159.25Z"/></svg>