<svg id="图层_1" data-name="图层 1" xmlns="http://www.w3.org/2000/svg" viewBox="0 0 654.87 230.5"><defs><style>.cls-1{fill:none;stroke:#ea5334;stroke-miterlimit:10;stroke-width:5px;}</style></defs><title>画板 2 副本 3</title><path class="cls-1" d="M141.24,72.35,149.74,49a1.18,1.18,0,0,1,1.1-.77H191a1.16,1.16,0,0,1,1.09,1.56L148.76,168.87a1.17,1.17,0,0,1-1.09.76H88.09a1.17,1.17,0,0,1-1.13-.9L79.07,134.1a1.16,1.16,0,0,0-2.22-.14L64.14,168.87a1.16,1.16,0,0,1-1.09.76H36.36a1.17,1.17,0,0,1-1.09-1.56L78.62,49a1.15,1.15,0,0,1,1.09-.77h51.72a1.17,1.17,0,0,1,1.12.85L139,72.26A1.16,1.16,0,0,0,141.24,72.35Z"/><path class="cls-1" d="M292.75,120.3H257.31a1.16,1.16,0,0,0-1.09.77l-8.58,23.56a1.17,1.17,0,0,0,1.09,1.56h39.55a1.16,1.16,0,0,1,.94,1.84L274,169.28a1.18,1.18,0,0,1-.95.49H174.61a1.17,1.17,0,0,1-1.09-1.56L216.86,49.12a1.17,1.17,0,0,1,1.1-.76H322.31a1.16,1.16,0,0,1,1.09,1.56l-7.73,21.25a1.16,1.16,0,0,1-1.09.76H274.92a1.15,1.15,0,0,0-1.09.77l-8,21.93a1.17,1.17,0,0,0,1.09,1.56h33.75a1.16,1.16,0,0,1,1.09,1.56l-7.93,21.79A1.16,1.16,0,0,1,292.75,120.3Z"/><path class="cls-1" d="M432.06,99.15,450.32,49a1.17,1.17,0,0,1,1.09-.77h33.78a1.17,1.17,0,0,1,1.09,1.56l-38,104.54a1.21,1.21,0,0,1-.39.53l-19.5,14.68a1.11,1.11,0,0,1-.7.23l-45-.13a1.15,1.15,0,0,1-1.12-.89l-2.36-10a1.16,1.16,0,0,0-2-.55l-11,11.23a1.19,1.19,0,0,1-.84.35H321.72a1.17,1.17,0,0,1-1-.57l-8.45-14.08a1.17,1.17,0,0,1-.09-1L350.44,49a1.17,1.17,0,0,1,1.09-.77h33.78a1.17,1.17,0,0,1,1.09,1.56l-18,49.45a1.16,1.16,0,0,0,2.1,1l28.86-50.44a1.18,1.18,0,0,1,1-.58l37,.13a1.16,1.16,0,0,1,1.14,1.37l-8.68,47.86A1.16,1.16,0,0,0,432.06,99.15Z"/><path class="cls-1" d="M527.75,142.84l7.79-21.39a1.16,1.16,0,0,0-1.1-1.55H488.71a1.16,1.16,0,0,1-1.09-1.56L509,59.74a1.09,1.09,0,0,1,.42-.55l15.14-10.62a1.1,1.1,0,0,1,.66-.21h93.9a1.17,1.17,0,0,1,1.1,1.56l-8.63,23.7a1.16,1.16,0,0,1-1.09.76H572.7a1.18,1.18,0,0,0-1.1.77L564,96a1.16,1.16,0,0,0,1.09,1.56H589a1.17,1.17,0,0,1,1,.48l8,11.28a1.19,1.19,0,0,1,.15,1.08l-17.42,47.86a1.15,1.15,0,0,1-.42.55l-15,10.62a1.13,1.13,0,0,1-.67.21h-95.8a1.17,1.17,0,0,1-1.1-1.56l8.63-23.7a1.16,1.16,0,0,1,1.09-.77h49.2A1.15,1.15,0,0,0,527.75,142.84Z"/></svg>